<?xml version="1.0" encoding="iso-8859-1"?>
<!-- Generator: Adobe Illustrator 19.0.0, SVG Export Plug-In . SVG Version: 6.00 Build 0)  -->
<svg version="1.1" id="Layer_1" xmlns="http://www.w3.org/2000/svg" x="0px" y="0px"
     viewBox="0 0 206.817 206.817" style="enable-background:new 0 0 206.817 206.817;" xml:space="preserve">
<g>
	<g>
		<g>
			<path d="M165.953,87.498c-1.88-29.879-27.386-53.623-58.468-53.623c-24.661,0-46.371,14.815-54.894,37.152
				c-0.719-0.03-1.44-0.045-2.159-0.045C22.624,70.982,0,93.851,0,121.962c0,28.111,22.624,50.98,50.432,50.98
				c0.538,0,1.073-0.009,1.607-0.026c0.141,0.017,0.285,0.026,0.43,0.026h114.106c0.272,0,0.54-0.033,0.797-0.094
				c22.17-1.485,39.445-20.092,39.445-42.64C206.817,107.122,188.613,88.256,165.953,87.498z M166.372,165.763
				c-0.139,0.007-0.278,0.022-0.414,0.047H53.049c-0.235-0.038-0.474-0.047-0.722-0.042c-0.629,0.028-1.261,0.042-1.895,0.042
				c-23.876,0-43.3-19.671-43.3-43.848s19.424-43.848,43.3-43.848c1.438,0,2.862,0.071,4.266,0.209
				c1.665,0.172,3.223-0.853,3.74-2.441c6.811-20.86,26.521-34.874,49.047-34.874c28.368,0,51.448,22.445,51.448,50.087
				c0,0.978,0.402,1.915,1.114,2.589c0.71,0.674,1.686,1.034,2.645,0.972c0.611-0.033,1.226-0.049,1.846-0.049
				c19.381,0,35.148,15.971,35.148,35.602C199.685,149.172,185.053,164.79,166.372,165.763z"/>
			<path d="M107.114,73.099c-13.84,0-25.1,11.26-25.1,25.1h7.132c0-9.907,8.061-17.968,17.968-17.968
				c9.907,0,17.967,8.061,17.967,17.968c0,9.907-8.06,17.967-17.967,17.967v0.002h-3.705v21.118h7.132v-14.25
				c12.219-1.68,21.672-12.163,21.672-24.836C132.212,84.359,120.952,73.099,107.114,73.099z"/>
			<rect x="103.408" y="140.849" width="7.132" height="7.132"/>
		</g>
	</g>
</g>
<g>
</g>
<g>
</g>
<g>
</g>
<g>
</g>
<g>
</g>
<g>
</g>
<g>
</g>
<g>
</g>
<g>
</g>
<g>
</g>
<g>
</g>
<g>
</g>
<g>
</g>
<g>
</g>
<g>
</g>
</svg>
